<?xml version="1.0" encoding="UTF-8" standalone="no"?>
<svg
   xmlns:dc="http://purl.org/dc/elements/1.1/"
   xmlns:cc="http://creativecommons.org/ns#"
   xmlns:rdf="http://www.w3.org/1999/02/22-rdf-syntax-ns#"
   xmlns:svg="http://www.w3.org/2000/svg"
   xmlns="http://www.w3.org/2000/svg"
   viewBox="0 0 576 57.599998"
   height="57.599998"
   width="576"
   xml:space="preserve"
   id="svg2"
   version="1.1"><metadata
     id="metadata8"><rdf:RDF><cc:Work
         rdf:about=""><dc:format>image/svg+xml</dc:format><dc:type
           rdf:resource="http://purl.org/dc/dcmitype/StillImage" /></cc:Work></rdf:RDF></metadata><defs
     id="defs6" /><g
     transform="matrix(1.3333333,0,0,-1.3333333,0,57.6)"
     id="g10"><path
       id="path12"
       style="fill:#ffffff;fill-opacity:1;fill-rule:nonzero;stroke:none"
       d="M 0,0 H 432 V 43.2 H 0 Z" /><path
       id="path14"
       style="fill:#ffffff;fill-opacity:0.8;fill-rule:nonzero;stroke:#cccccc;stroke-width:1;stroke-linecap:butt;stroke-linejoin:miter;stroke-miterlimit:10;stroke-dasharray:none;stroke-opacity:0.8"
       d="M 26.859337,14.414944 H 405.14066 c 1.06667,0 1.6,0.533333 1.6,1.6 v 11.170112 c 0,1.066667 -0.53333,1.6 -1.6,1.6 H 26.859337 c -1.066667,0 -1.6,-0.533333 -1.6,-1.6 V 16.014944 c 0,-1.066667 0.533333,-1.6 1.6,-1.6 z" /><path
       id="path16"
       style="fill:none;stroke:#f14432;stroke-width:1.5;stroke-linecap:square;stroke-linejoin:round;stroke-miterlimit:10;stroke-dasharray:none;stroke-opacity:1"
       d="m 28.459337,22.407472 h 16" /><path
       id="path18"
       style="fill:#f14432;fill-opacity:1;fill-rule:nonzero;stroke:#f14432;stroke-width:1;stroke-linecap:butt;stroke-linejoin:round;stroke-miterlimit:10;stroke-dasharray:none;stroke-opacity:1"
       d="m 36.459337,19.407472 c 0.795609,0 1.55874,0.316099 2.12132,0.87868 0.562581,0.56258 0.87868,1.325711 0.87868,2.12132 0,0.795609 -0.316099,1.55874 -0.87868,2.12132 -0.56258,0.562581 -1.325711,0.87868 -2.12132,0.87868 -0.795609,0 -1.55874,-0.316099 -2.12132,-0.87868 -0.562581,-0.56258 -0.87868,-1.325711 -0.87868,-2.12132 0,-0.795609 0.316099,-1.55874 0.87868,-2.12132 0.56258,-0.562581 1.325711,-0.87868 2.12132,-0.87868 z" /><text
       id="text22"
       style="font-variant:normal;font-weight:normal;font-size:7.97011185px;font-family:CMR8;-inkscape-font-specification:CMR8;writing-mode:lr-tb;fill:#000000;fill-opacity:1;fill-rule:nonzero;stroke:none"
       transform="matrix(1,0,0,-1,50.859337,19.607472)"><tspan
         id="tspan20"
         y="0"
         x="0 2.5823164 7.2846823 9.6358652">full</tspan></text>
<path
       id="path24"
       style="fill:none;stroke:#73c476;stroke-width:1.5;stroke-linecap:square;stroke-linejoin:round;stroke-miterlimit:10;stroke-dasharray:none;stroke-opacity:1"
       d="m 78.856188,22.407472 h 16" /><path
       id="path26"
       style="fill:#73c476;fill-opacity:1;fill-rule:nonzero;stroke:#73c476;stroke-width:1;stroke-linecap:butt;stroke-linejoin:round;stroke-miterlimit:10;stroke-dasharray:none;stroke-opacity:1"
       d="m 83.856188,19.407472 6,6 m -6,0 6,-6" /><text
       id="text30"
       style="font-variant:normal;font-weight:normal;font-size:7.97011185px;font-family:CMR8;-inkscape-font-specification:CMR8;writing-mode:lr-tb;fill:#000000;fill-opacity:1;fill-rule:nonzero;stroke:none"
       transform="matrix(1,0,0,-1,101.25619,19.607472)"><tspan
         id="tspan28"
         y="0"
         x="0 2.3511832 5.69066 10.393026 13.214446">lsh-1</tspan></text>
<path
       id="path32"
       style="fill:none;stroke:#2f974e;stroke-width:1.5;stroke-linecap:square;stroke-linejoin:round;stroke-miterlimit:10;stroke-dasharray:none;stroke-opacity:1"
       d="m 134.71043,22.407472 h 16" /><path
       id="path34"
       style="fill:#2f974e;fill-opacity:1;fill-rule:nonzero;stroke:#2f974e;stroke-width:1;stroke-linecap:butt;stroke-linejoin:round;stroke-miterlimit:10;stroke-dasharray:none;stroke-opacity:1"
       d="m 139.71043,19.407472 6,6 m -6,0 6,-6" /><text
       id="text38"
       style="font-variant:normal;font-weight:normal;font-size:7.97011185px;font-family:CMR8;-inkscape-font-specification:CMR8;writing-mode:lr-tb;fill:#000000;fill-opacity:1;fill-rule:nonzero;stroke:none"
       transform="matrix(1,0,0,-1,157.11043,19.607472)"><tspan
         id="tspan36"
         y="0"
         x="0 2.3511832 5.69066 10.393026 13.214446">lsh-4</tspan></text>
<path
       id="path40"
       style="fill:none;stroke:#6aaed6;stroke-width:1.5;stroke-linecap:square;stroke-linejoin:round;stroke-miterlimit:10;stroke-dasharray:none;stroke-opacity:1"
       d="m 190.56468,22.407472 h 16" /><path
       id="path42"
       style="fill:#6aaed6;fill-opacity:1;fill-rule:nonzero;stroke:#6aaed6;stroke-width:1;stroke-linecap:butt;stroke-linejoin:miter;stroke-miterlimit:10;stroke-dasharray:none;stroke-opacity:1"
       d="m 198.56468,18.164831 4.24264,4.242641 -4.24264,4.242641 -4.24264,-4.242641 z" /><text
       id="text46"
       style="font-variant:normal;font-weight:normal;font-size:7.97011185px;font-family:CMR8;-inkscape-font-specification:CMR8;writing-mode:lr-tb;fill:#000000;fill-opacity:1;fill-rule:nonzero;stroke:none"
       transform="matrix(1,0,0,-1,212.96468,19.607472)"><tspan
         id="tspan44"
         y="0"
         x="0 3.7618928 6.1130757 10.815442 14.154919 17.446575 21.208467 24.508095 28.269987 32.972355 35.793774 40.025902 44.258034 51.31295 54.604607 58.836735 63.539101 66.83873 70.178207">clustered-100(ours)</tspan></text>
<path
       id="path48"
       style="fill:none;stroke:#084a91;stroke-width:1.5;stroke-linecap:square;stroke-linejoin:round;stroke-miterlimit:10;stroke-dasharray:none;stroke-opacity:1"
       d="m 302.46511,22.407472 h 16" /><path
       id="path50"
       style="fill:#084a91;fill-opacity:1;fill-rule:nonzero;stroke:#084a91;stroke-width:1;stroke-linecap:butt;stroke-linejoin:miter;stroke-miterlimit:10;stroke-dasharray:none;stroke-opacity:1"
       d="m 310.46511,25.407472 -3,-6 h 6 z" /><text
       id="text54"
       style="font-variant:normal;font-weight:normal;font-size:7.97011185px;font-family:CMR8;-inkscape-font-specification:CMR8;writing-mode:lr-tb;fill:#000000;fill-opacity:1;fill-rule:nonzero;stroke:none"
       transform="matrix(1,0,0,-1,324.86512,19.607472)"><tspan
         id="tspan52"
         y="0"
         x="0 2.3511832 5.1726027 8.9344959 11.285679 15.988045 19.327522 22.619179 26.381071 29.680696 33.442589 38.144955 40.966377 45.198505 49.430634 56.485554 59.77721 64.009338 68.711708 72.01133 75.350807">i-clustered-100(ours)</tspan></text>
</g></svg>